# xmcd
#
# Track frame offsets: 
#        150
#        12256
#        26512
#        35372
#        48141
#        57721
#        73648
#        87308
#        100278
#        109254
#        122586
#        138845
#
# Disc length: 2002 seconds
#
# Revision: 0
# Processed by: cddbd v1.5.2PL0 Copyright (c) Steve Scherf et al.
# Submitted via: ExactAudioCopyFreeDBPlugin 1.0
#
DISCID=9d07d00c
DTITLE=Pierre Perret - Pierre Perret
DYEAR=2011
DGENRE=Variété française
TTITLE0=Mon petit amour
TTITLE1=Toutes comme ça
TTITLE2=S'il-vous-plaît, merci encore
TTITLE3=L'amour et la tendresse
TTITLE4=Moi je sais ça
TTITLE5=Pépé la jactance
TTITLE6=La corrida
TTITLE7=La petite
TTITLE8=Quatorze ans
TTITLE9=Je ne sais plus sur quel pied danser
TTITLE10=Le plus mauvais d'entre vous
TTITLE11=J'peux pas
EXTD=Intégrale 1957 - 2011
EXTT0=
EXTT1=
EXTT2=
EXTT3=
EXTT4=
EXTT5=
EXTT6=
EXTT7=
EXTT8=
EXTT9=
EXTT10=
EXTT11=
PLAYORDER=
